Tom.Clancys.Ghost.Recon.Alpha.2012.PL.SUBBED.HDTV.XviD-RLF
~~~~~~~~~~~~~~~~~~~~~~~~~~~~~~~~~~~~~~~~~~~~~~~~~~~~~~~~~~                                            
GENERAL:


Complete name                    : rlf-recon-ps.avi
Format                           : AVI
Format/Info                      : Audio Video Interleave
File size                        : 185 MiB
Duration                         : 23 mn 52s
Overall bit rate                 : 1 082 Kbps
Language                         : English
Subs                             : Polish Hardcoded 
Encoder                          : Ralf

Video:

                     
Format                           : MPEG-4 Visual
Format profile                   : Advanced Simple@L5
Format settings, BVOP            : 2
Format settings, QPel            : No
Format settings, GMC             : No warppoints
Format settings, Matrix          : H.263
Muxing mode                      : Packed bitstream
Codec ID                         : XVID
Duration                         : 23 mn 52s
Bit rate                         : 945 Kbps
Width                            : 688 pixels
Height                           : 288 pixels
Display aspect ratio             : 2.35:1
Frame rate                       : 25.000 fps
Color space                      : YUV
Chroma subsampling               : 4:2:0
Bit depth                        : 8 bits
Scan type                        : Interlaced
Bits/(Pixel Frame)               : 0.191
Stream size                      : 161 MiB (87%)      
Stream size                      : Xvid 64

Audio:


Format                           : MPEG Audio
Codec ID/Hint                    : MP3
Duration                         : 23 mn 52s
Bit rate mode                    : Constant
Bit rate                         : 128 Kbps
Channel(s)                       : 2 channels
Sampling rate                    : 48.0 KHz
Stream size                      : 21.9 MiB (12%)
Alignment                        : Split accross interleaves
Interleave, duration             : 40 ms (1.00 video frame)
Interleave, preload duration     : 500 ms
                   

MOVIE INFO:
             

Oddzial duchow jest najlepiej wyszkolona jednostka na calej planecie. Rzuceni 
daleko za linie wroga musza  odnalezc i wyeliminowac najwiekszych zbrodniarzy 
wojennych.


Tom Clancy─║s Ghost Recon Alpha is the 25-minute prequel film to the video 
game Tom Clancy─║s Ghost Recon Future Soldier and follows the Ghosts as they 
are dropped deep behind enemy lines in order to eliminate one of the world─║s 
most sought-after war criminals. 
                                          
http://www.imdb.com/title/tt2371253/ 
http://www.gry-online.pl/S013.asp?ID=67645
                                               
SOURCE:

PSiG's 720p.HDTV.x264 (BiG THX)

SCREENS:
 
http://image.bayimg.com/paokeaadf.jpg 
http://image.bayimg.com/paokfaadf.jpg 
http://image.bayimg.com/paokgaadf.jpg

